<svg xmlns="http://www.w3.org/2000/svg" width="14" height="14.004" viewBox="0 0 14 14.004">
  <g id="Group_17" data-name="Group 17" transform="translate(-204 -133)">
    <g id="수정하기_아이콘666" transform="translate(204 133)">
      <g id="Group_18" data-name="Group 18" transform="translate(0 0)">
        <path id="Path_1" data-name="Path 1" d="M36.114,5.2a2.678,2.678,0,0,0-1.937.811l-4.586,4.569A4.384,4.384,0,0,0,28.3,13.693v2.069h2.069a4.384,4.384,0,0,0,3.112-1.291l4.586-4.586a2.748,2.748,0,0,0,0-3.891A2.872,2.872,0,0,0,36.114,5.2Zm.7,3.444L32.24,13.229a2.63,2.63,0,0,1-1.871.778h-.3v-.3a2.659,2.659,0,0,1,.778-1.871l4.586-4.586a.985.985,0,0,1,1.473,1.308.439.439,0,0,1-.1.083Z" transform="translate(-24.875 -5.2)" fill="#666"/>
        <path id="Path_2" data-name="Path 2" d="M9.715,23.627h7.863a2.612,2.612,0,0,0,2.615-2.615v-3.5H18.467v3.5a.878.878,0,0,1-.872.872H9.715a.878.878,0,0,1-.872-.872V13.132a.878.878,0,0,1,.872-.872h3.5V10.5h-3.5A2.612,2.612,0,0,0,7.1,13.115v7.863A2.629,2.629,0,0,0,9.715,23.627Z" transform="translate(-7.1 -9.623)" fill="#666"/>
      </g>
    </g>
  </g>
</svg>
