<?xml version="1.0" encoding="utf-8"?>
<!-- Generator: Adobe Illustrator 25.4.0, SVG Export Plug-In . SVG Version: 6.00 Build 0)  -->
<svg version="1.1" id="Capa_1" xmlns="http://www.w3.org/2000/svg" xmlns:xlink="http://www.w3.org/1999/xlink" x="0px" y="0px"
	 viewBox="0 0 283.5 283.5" style="enable-background:new 0 0 283.5 283.5;" xml:space="preserve">
<style type="text/css">
	.st0{display:none;}
	.st1{display:inline;}
	.st2{fill:#333333;}
	.st3{display:none;fill:#333333;}
	.st4{display:none;fill:#CCCCCC;}
</style>
<g class="st0">
	<g class="st1">
		<path class="st2" d="M65.2,141.7c0,2.9,1.2,5.7,3.2,7.8l131.1,130.8c2.2,2.2,4.9,3.2,7.8,3.2c2.8,0,5.6-1.1,7.8-3.2
			c4.3-4.3,4.3-11.3,0-15.6l-123.3-123l123.4-123c4.3-4.3,4.3-11.2,0-15.6c-4.3-4.3-11.2-4.3-15.6,0L68.4,134
			C66.3,136,65.2,138.8,65.2,141.7z"/>
	</g>
</g>
<g class="st0">
	<g class="st1">
		<path class="st2" d="M183.9,245.8c-2.5,21.1-20.6,37.6-42.1,37.6s-39.6-16.6-42.1-37.6H41.4c-15.1,0-27.6-12.5-27.6-27.6
			c0-15.1,12.5-27.6,27.6-27.6c1.5,0,2.5-1,2.5-2.5v-60.2c0-43.1,27.6-80.3,67.7-93.3v-4.5c0-16.6,13.5-30.1,30.1-30.1
			s30.1,13.5,30.1,30.1v4.5c40.1,13,67.7,50.2,67.7,93.3v60.2c0,1.5,1,2.5,2.5,2.5c15.1,0,27.6,12.5,27.6,27.6
			c0,15.1-12.5,27.6-27.6,27.6H183.9z M168.8,245.8h-54.2c2.5,13,13.5,22.6,27.1,22.6S166.3,258.9,168.8,245.8z M120.7,47.7
			c-36.1,9.5-62.2,42.1-62.2,80.3v60.2c0,9.5-8,17.6-17.6,17.6c-7,0-12.5,5.5-12.5,12.5s5.5,12.5,12.5,12.5h200.7
			c7,0,12.5-5.5,12.5-12.5s-5.5-12.5-12.5-12.5c-9.5,0-17.6-8-17.6-17.6v-60.2c0-38.1-25.6-70.7-62.2-80.3l-5.5-1.5V30.1
			c0-8.5-6.5-15.1-15.1-15.1c-8.5,0-15.1,6.5-15.1,15.1v16.1L120.7,47.7z"/>
	</g>
</g>
<path class="st2" d="M150.7,283.5h-17.8c-14.4,0-26.1-11.7-26.1-26.1v-6c-6.1-1.9-12.1-4.4-17.8-7.4l-4.3,4.3
	c-10.4,10.4-26.9,10-36.9,0l-12.6-12.6c-10-10-10.4-26.6,0-36.9l4.3-4.3c-2.9-5.7-5.4-11.6-7.4-17.8h-6.1C11.7,176.7,0,165,0,150.6
	v-17.8c0-14.4,11.7-26.1,26.1-26.1h6c1.9-6.1,4.4-12.1,7.4-17.8l-4.3-4.3c-10.4-10.3-10.1-26.9,0-36.9l12.6-12.6
	c10.1-10.1,26.6-10.3,36.9,0l4.3,4.3c5.7-2.9,11.6-5.4,17.8-7.4v-6.1c0-14.4,11.7-26.1,26.1-26.1h17.8c14.4,0,26.1,11.7,26.1,26.1v6
	c6.1,1.9,12.1,4.4,17.8,7.4l4.3-4.3c10.4-10.4,26.9-10,36.9,0l12.6,12.6c10,10,10.4,26.6,0,36.9L244,89c2.9,5.7,5.4,11.6,7.4,17.8h6
	c14.4,0,26.1,11.7,26.1,26.1v17.8c0,14.4-11.7,26.1-26.1,26.1h-6c-1.9,6.1-4.4,12.1-7.4,17.8l4.3,4.3c10.4,10.3,10.1,26.9,0,36.9
	l-12.6,12.6c-10.1,10.1-26.6,10.3-36.9,0l-4.3-4.3c-5.7,2.9-11.6,5.4-17.8,7.4v6C176.8,271.8,165.1,283.5,150.7,283.5z M91.8,226.6
	c7.9,4.7,16.4,8.2,25.4,10.5c3.7,0.9,6.3,4.3,6.3,8v12.2c0,5.2,4.3,9.5,9.5,9.5h17.8c5.2,0,9.5-4.3,9.5-9.5v-12.2
	c0-3.8,2.5-7.1,6.3-8c8.9-2.3,17.4-5.9,25.4-10.5c3.3-1.9,7.4-1.4,10.1,1.3l8.7,8.7c3.8,3.8,9.7,3.7,13.4,0l12.6-12.6
	c3.7-3.7,3.8-9.6,0-13.4l-8.7-8.7c-2.7-2.7-3.2-6.8-1.3-10.1c4.7-7.9,8.2-16.4,10.5-25.4c0.9-3.7,4.3-6.3,8-6.3h12.2
	c5.2,0,9.5-4.3,9.5-9.5v-17.8c0-5.2-4.3-9.5-9.5-9.5H245c-3.8,0-7.1-2.5-8-6.3c-2.3-8.9-5.9-17.4-10.5-25.4
	c-1.9-3.3-1.4-7.4,1.3-10.1l8.7-8.7c3.8-3.8,3.7-9.7,0-13.4l-12.6-12.6c-3.7-3.7-9.7-3.8-13.4,0l-8.7,8.7c-2.7,2.7-6.9,3.2-10.1,1.3
	c-7.9-4.7-16.4-8.2-25.4-10.5c-3.7-0.9-6.3-4.3-6.3-8V26.1c0-5.2-4.3-9.5-9.5-9.5h-17.8c-5.2,0-9.5,4.3-9.5,9.5v12.2
	c0,3.8-2.5,7.1-6.3,8c-8.9,2.3-17.4,5.9-25.4,10.5c-3.3,1.9-7.4,1.4-10.1-1.3L73,46.9c-3.8-3.8-9.7-3.7-13.4,0L47,59.5
	c-3.7,3.7-3.8,9.6,0,13.4l8.7,8.7c2.7,2.7,3.2,6.8,1.3,10.1c-4.7,7.9-8.2,16.4-10.5,25.4c-0.9,3.7-4.3,6.3-8,6.3H26.1
	c-5.2,0-9.5,4.3-9.5,9.5v17.8c0,5.2,4.3,9.5,9.5,9.5h12.2c3.8,0,7.1,2.5,8,6.3c2.3,8.9,5.9,17.4,10.5,25.4c1.9,3.3,1.4,7.4-1.3,10.1
	l-8.7,8.7c-3.8,3.8-3.7,9.7,0,13.4l12.6,12.6c3.7,3.7,9.7,3.8,13.4,0l8.7-8.7C83.6,225.8,87.8,224.2,91.8,226.6L91.8,226.6z"/>
<path class="st2" d="M141.7,203.4c-34,0-61.7-27.7-61.7-61.7s27.7-61.7,61.7-61.7s61.7,27.7,61.7,61.7S175.7,203.4,141.7,203.4z
	 M141.7,96.7c-24.9,0-45.1,20.2-45.1,45.1s20.2,45.1,45.1,45.1s45.1-20.2,45.1-45.1S166.6,96.7,141.7,96.7L141.7,96.7z"/>
<path class="st3" d="M259.4,24c-3.7-3.7-9.3-3.7-13,0l0,0L141.7,128.8L37,24c-3.7-3.7-9.3-3.7-13,0s-3.7,9.3,0,13l104.7,104.7
	L24,246.5c-3.7,3.7-3.7,9.3,0,13c3.7,3.7,9.3,3.7,13,0l0,0l104.7-104.7l104.7,104.7c3.7,3.7,9.3,3.7,13,0c3.7-3.7,3.7-9.3,0-13
	L154.7,141.7L259.4,37C263.1,33.3,263.1,27.7,259.4,24L259.4,24z"/>
<path class="st4" d="M241.9,41.5C215.2,14.7,179.6,0,141.7,0S68.3,14.7,41.5,41.5S0,103.9,0,141.7s14.7,73.5,41.5,100.2
	s62.3,41.5,100.2,41.5s73.5-14.7,100.2-41.5s41.5-62.3,41.5-100.2S268.7,68.3,241.9,41.5z M141.7,261.3
	c-65.9,0-119.6-53.6-119.6-119.6S75.8,22.1,141.7,22.1s119.6,53.6,119.6,119.6S207.7,261.3,141.7,261.3z"/>
<polygon class="st3" points="218.3,111.3 202.6,95.6 141.7,156.5 80.8,95.6 65.2,111.3 141.7,187.9 "/>
</svg>
